<svg xmlns="http://www.w3.org/2000/svg" viewBox="0 0 16 16" shape-rendering="crispEdges">
  <rect width="16" height="16" fill="#0f172a"/>
  <circle cx="8" cy="8" r="6" fill="#1e293b"/>
  <rect x="4" y="3" width="1" height="1" fill="#22c55e"/>
  <rect x="5" y="3" width="1" height="1" fill="#22c55e"/>
  <rect x="6" y="3" width="1" height="1" fill="#22c55e"/>
  <rect x="7" y="3" width="1" height="1" fill="#22c55e"/>
  <rect x="8" y="3" width="1" height="1" fill="#22c55e"/>
  <rect x="9" y="3" width="1" height="1" fill="#22c55e"/>
  <rect x="10" y="3" width="1" height="1" fill="#22c55e"/>
  <rect x="4" y="4" width="1" height="1" fill="#22c55e"/>
  <rect x="10" y="4" width="1" height="1" fill="#22c55e"/>
  <rect x="4" y="5" width="1" height="1" fill="#22c55e"/>
  <rect x="6" y="5" width="1" height="1" fill="#22c55e"/>
  <rect x="7" y="5" width="1" height="1" fill="#22c55e"/>
  <rect x="8" y="5" width="1" height="1" fill="#22c55e"/>
  <rect x="10" y="5" width="1" height="1" fill="#22c55e"/>
  <rect x="4" y="6" width="1" height="1" fill="#22c55e"/>
  <rect x="6" y="6" width="1" height="1" fill="#22c55e"/>
  <rect x="8" y="6" width="1" height="1" fill="#22c55e"/>
  <rect x="10" y="6" width="1" height="1" fill="#22c55e"/>
  <rect x="4" y="7" width="1" height="1" fill="#22c55e"/>
  <rect x="6" y="7" width="1" height="1" fill="#22c55e"/>
  <rect x="7" y="7" width="1" height="1" fill="#22c55e"/>
  <rect x="8" y="7" width="1" height="1" fill="#22c55e"/>
  <rect x="10" y="7" width="1" height="1" fill="#22c55e"/>
  <rect x="4" y="8" width="1" height="1" fill="#22c55e"/>
  <rect x="10" y="8" width="1" height="1" fill="#22c55e"/>
  <rect x="4" y="9" width="1" height="1" fill="#22c55e"/>
  <rect x="5" y="9" width="1" height="1" fill="#22c55e"/>
  <rect x="6" y="9" width="1" height="1" fill="#22c55e"/>
  <rect x="7" y="9" width="1" height="1" fill="#22c55e"/>
  <rect x="8" y="9" width="1" height="1" fill="#22c55e"/>
  <rect x="9" y="9" width="1" height="1" fill="#22c55e"/>
  <rect x="10" y="9" width="1" height="1" fill="#22c55e"/>
  <rect x="5" y="3" width="1" height="1" fill="#ffffff88"/>
  <rect x="6" y="2" width="1" height="1" fill="#ffffff66"/>
</svg>
