<svg xmlns="http://www.w3.org/2000/svg" viewBox="0 0 16 16" shape-rendering="crispEdges">
  <rect width="16" height="16" fill="#111827"/>
  <rect x="1" y="1" width="14" height="14" fill="#1f2937"/>
  <rect x="2" y="2" width="12" height="12" fill="#0b1220"/>
  <rect x="7" y="1" width="1" height="1" fill="#f43f5e"/>
  <rect x="6" y="2" width="1" height="1" fill="#f43f5e"/>
  <rect x="7" y="2" width="1" height="1" fill="#f43f5e"/>
  <rect x="8" y="2" width="1" height="1" fill="#f43f5e"/>
  <rect x="5" y="3" width="1" height="1" fill="#f43f5e"/>
  <rect x="6" y="3" width="1" height="1" fill="#f43f5e"/>
  <rect x="7" y="3" width="1" height="1" fill="#f43f5e"/>
  <rect x="8" y="3" width="1" height="1" fill="#f43f5e"/>
  <rect x="9" y="3" width="1" height="1" fill="#f43f5e"/>
  <rect x="7" y="4" width="1" height="1" fill="#f43f5e"/>
  <rect x="4" y="5" width="1" height="1" fill="#f43f5e"/>
  <rect x="5" y="5" width="1" height="1" fill="#f43f5e"/>
  <rect x="6" y="5" width="1" height="1" fill="#f43f5e"/>
  <rect x="7" y="5" width="1" height="1" fill="#f43f5e"/>
  <rect x="8" y="5" width="1" height="1" fill="#f43f5e"/>
  <rect x="9" y="5" width="1" height="1" fill="#f43f5e"/>
  <rect x="10" y="5" width="1" height="1" fill="#f43f5e"/>
  <rect x="5" y="6" width="1" height="1" fill="#f43f5e"/>
  <rect x="6" y="6" width="1" height="1" fill="#f43f5e"/>
  <rect x="7" y="6" width="1" height="1" fill="#f43f5e"/>
  <rect x="8" y="6" width="1" height="1" fill="#f43f5e"/>
  <rect x="9" y="6" width="1" height="1" fill="#f43f5e"/>
  <rect x="6" y="7" width="1" height="1" fill="#f43f5e"/>
  <rect x="7" y="7" width="1" height="1" fill="#f43f5e"/>
  <rect x="8" y="7" width="1" height="1" fill="#f43f5e"/>
  <rect x="7" y="8" width="1" height="1" fill="#f43f5e"/>
  <rect x="5" y="2" width="1" height="1" fill="#ffffff88"/>
  <rect x="6" y="2" width="1" height="1" fill="#ffffff66"/>
</svg>
